<svg width="241.024" xmlns="http://www.w3.org/2000/svg" height="68.659" viewBox="0 0 180.768 51.494"><defs><clipPath id="a"><path d="M0 0h170.768v41.494H0V0z" transform="translate(5 5)"/></clipPath></defs><g clip-path="url(#a)"><path d="M10.52 39.374c-1.973-.053-3.387-.533-4.24-1.44-.853-.933-1.28-2.4-1.28-4.4v-25l3.44-.6v25.68c0 .933.187 1.613.56 2.04.373.4 1.027.68 1.96.84l-.44 2.88zm10.687-.4h-3.44v-21h3.44v21zm-1.72-24.72a2.34 2.34 0 0 1-1.6-.6c-.427-.427-.64-.987-.64-1.68s.213-1.24.64-1.64c.453-.427.987-.64 1.6-.64.613 0 1.133.213 1.56.64.453.4.68.947.68 1.64s-.227 1.253-.68 1.68c-.427.4-.947.6-1.56.6z" fill="#cc181b"/><path d="M30.455 18.574a25.767 25.767 0 0 1 3.2-.72c1.147-.213 2.2-.32 3.16-.32 1.04 0 1.987.147 2.84.44a4.685 4.685 0 0 1 2.16 1.4c.613.667 1.08 1.573 1.4 2.72.347 1.12.52 2.52.52 4.2v12.68h-3.44v-12.4c0-2.08-.267-3.6-.8-4.56-.533-.96-1.533-1.44-3-1.44-.773 0-1.64.133-2.6.4v18h-3.44v-20.4zm24.657 10.92c.027 1.013.12 1.947.28 2.8.16.827.413 1.56.76 2.2a4.136 4.136 0 0 0 1.44 1.44c.613.347 1.387.52 2.32.52.773 0 1.48-.107 2.12-.32.667-.24 1.147-.44 1.44-.6l.64 2.76c-.347.24-.933.493-1.76.76-.8.293-1.76.44-2.88.44-1.467 0-2.707-.267-3.72-.8a6.766 6.766 0 0 1-2.44-2.24c-.613-.96-1.053-2.107-1.32-3.44-.267-1.333-.4-2.8-.4-4.4 0-3.867.64-6.693 1.92-8.48 1.28-1.787 2.973-2.68 5.08-2.68 2.373 0 4.053.893 5.04 2.68.987 1.787 1.48 4.293 1.48 7.52v.92c0 .293-.013.6-.04.92h-9.96zm3.48-9.12c-1.147 0-1.987.573-2.52 1.72-.507 1.147-.813 2.68-.92 4.6h6.36c0-1.947-.2-3.48-.6-4.6-.4-1.147-1.173-1.72-2.32-1.72zm23.662.72c-.853-.373-1.813-.56-2.88-.56-.987 0-1.907.173-2.76.52v17.92h-3.44v-20.08c.773-.373 1.653-.68 2.64-.92 1.013-.267 2.12-.4 3.32-.4.64 0 1.28.04 1.92.12.64.08 1.24.227 1.8.44l-.6 2.96zm19.134 17.28c0 1.493-.2 2.747-.6 3.76-.373 1.04-.893 1.88-1.56 2.52a6.045 6.045 0 0 1-2.36 1.4c-.88.293-1.827.44-2.84.44-.853 0-1.707-.093-2.56-.28a9.525 9.525 0 0 1-2.36-.84l.72-2.88c.48.267 1.067.507 1.76.72.693.213 1.413.32 2.16.32 1.307 0 2.333-.373 3.08-1.12.747-.747 1.12-2.027 1.12-3.84v-1c-.427.187-.88.347-1.36.48-.48.107-1.027.16-1.64.16-2.507 0-4.347-.853-5.52-2.56-1.147-1.733-1.72-4.173-1.72-7.32 0-1.68.147-3.187.44-4.52.32-1.36.8-2.507 1.44-3.44a6.269 6.269 0 0 1 2.56-2.16c1.04-.507 2.307-.76 3.8-.76.987 0 1.947.107 2.88.32.96.187 1.813.44 2.56.76v19.84zm-3.44-17.6a5.457 5.457 0 0 0-1.08-.2 6.347 6.347 0 0 0-.96-.08c-1.6 0-2.773.613-3.52 1.84-.72 1.227-1.08 3.227-1.08 6 0 2.507.36 4.28 1.08 5.32.72 1.013 1.747 1.52 3.08 1.52.453 0 .88-.053 1.28-.16a5.84 5.84 0 0 0 1.2-.44v-13.8zm17.472 13.84a169.88 169.88 0 0 0 2.12-8.04c.64-2.693 1.253-5.56 1.84-8.6h3.4c-.4 1.947-.84 3.867-1.32 5.76-.453 1.893-.933 3.72-1.44 5.48-.48 1.76-.973 3.427-1.48 5-.48 1.547-.933 2.96-1.36 4.24-.507 1.493-1 2.747-1.48 3.76-.453 1.04-.96 1.867-1.52 2.48-.533.64-1.12 1.093-1.76 1.36-.64.293-1.4.44-2.28.44-.48 0-.96-.067-1.44-.2a7.28 7.28 0 0 1-1.2-.36l.64-2.8c.693.293 1.347.44 1.96.44.773 0 1.4-.28 1.88-.84.48-.56.947-1.4 1.4-2.52l.4-1a113.758 113.758 0 0 1-1.56-4.6 278.573 278.573 0 0 1-1.52-5.32c-.48-1.84-.947-3.72-1.4-5.64-.453-1.947-.867-3.84-1.24-5.68h3.64c.213 1.253.467 2.627.76 4.12.293 1.493.6 2.987.92 4.48a360.74 360.74 0 0 0 1.04 4.36c.347 1.387.68 2.613 1 3.68z" fill="#161413"/><path d="M133.36 37.134c0 .613-.227 1.16-.68 1.64-.427.48-1 .72-1.72.72s-1.293-.24-1.72-.72c-.427-.48-.64-1.027-.64-1.64 0-.64.213-1.2.64-1.68.427-.48 1-.72 1.72-.72s1.293.24 1.72.72c.453.48.68 1.04.68 1.68zm17.416-16a5.054 5.054 0 0 0-2.48-.64c-.667 0-1.253.133-1.76.4-.507.267-.947.707-1.32 1.32-.347.613-.613 1.427-.8 2.44-.187 1.013-.28 2.267-.28 3.76 0 2.88.373 4.947 1.12 6.2.773 1.227 1.933 1.84 3.48 1.84.293 0 .613-.013.96-.04a8.804 8.804 0 0 0 1.08-.24v-15.04zm0-12.6l3.44-.6v30.48c-.747.32-1.6.573-2.56.76-.96.213-1.933.32-2.92.32-2.88 0-4.973-.92-6.28-2.76-1.28-1.84-1.92-4.613-1.92-8.32 0-1.68.133-3.187.4-4.52.293-1.36.733-2.507 1.32-3.44.613-.96 1.387-1.693 2.32-2.2.933-.533 2.04-.8 3.32-.8.613 0 1.133.067 1.56.2.453.107.893.267 1.32.48v-9.6zm14.992 20.96c.027 1.013.12 1.947.28 2.8.16.827.413 1.56.76 2.2a4.136 4.136 0 0 0 1.44 1.44c.613.347 1.387.52 2.32.52.773 0 1.48-.107 2.12-.32.667-.24 1.147-.44 1.44-.6l.64 2.76c-.347.24-.933.493-1.76.76-.8.293-1.76.44-2.88.44-1.467 0-2.707-.267-3.72-.8a6.766 6.766 0 0 1-2.44-2.24c-.613-.96-1.053-2.107-1.32-3.44-.267-1.333-.4-2.8-.4-4.4 0-3.867.64-6.693 1.92-8.48 1.28-1.787 2.973-2.68 5.08-2.68 2.373 0 4.053.893 5.04 2.68.987 1.787 1.48 4.293 1.48 7.52v.92c0 .293-.013.6-.04.92h-9.96zm3.48-9.12c-1.147 0-1.987.573-2.52 1.72-.507 1.147-.813 2.68-.92 4.6h6.36c0-1.947-.2-3.48-.6-4.6-.4-1.147-1.173-1.72-2.32-1.72z" fill="#9d9fa1"/><path d="M25.033 7.88h2.7V5h1.48v2.88h2.7v1.46h-2.7v2.9h-1.48v-2.9h-2.7V7.88z" fill="#cc181b"/></g></svg>