<svg xmlns="http://www.w3.org/2000/svg" width="990.262" height="733.496" viewBox="0 0 262.007 194.071" id="svg8"><defs id="defs2"><style id="style2">@keyframes throb{0%,to{stroke-width:1}50%{stroke-width:1.7}}@keyframes throb2{0%,to{stroke-width:.26458332}50%{stroke-width:1}}</style></defs><g id="layer1" transform="translate(417.235 28.077)"><circle style="animation:4s throb infinite;animation-delay:2s" cx="-261.938" cy="114.06" r="46.434" fill="none" fill-opacity="0" stroke="#d8d8d8"/><g id="linergy"><circle r="23.987" cy="114.06" cx="-261.938" style="animation:4s throb infinite" fill="red" stroke="#000" stroke-width="2.8" stroke-opacity=".784" paint-order="stroke fill markers"/><g transform="translate(-56.123 13.572)" id="liplus" font-weight="400" word-spacing="0"><g aria-label="li" style="line-height:125%;-inkscape-font-specification:'Ubuntu Mono'" id="text867" font-size="31.75" font-family="Ubuntu Condensed" letter-spacing="4.166" fill="#f9ffff" stroke-width="1.389"><path d="M-208.979 112.888q-2.35-.063-3.365-1.143-1.016-1.111-1.016-3.492V88.409l2.73-.476v20.383q0 1.111.445 1.62.444.476 1.555.666z" style="-inkscape-font-specification:'Ubuntu Condensed, '" id="path839"/><path d="M-198.711 112.57h-2.73V95.903h2.73zm-1.366-19.62q-.73 0-1.27-.477-.508-.508-.508-1.334 0-.825.508-1.301.54-.508 1.27-.508t1.239.508q.54.476.54 1.301 0 .826-.54 1.334-.508.476-1.239.476z" style="-inkscape-font-specification:'Ubuntu Condensed, '" id="path841"/></g><g aria-label="+" style="line-height:125%;-inkscape-font-specification:'Ubuntu Mono'" id="text948" font-size="19.68" font-family="Ubuntu Mono" letter-spacing="0" fill="#fff" stroke-width=".611"><path d="M-196.201 86.565h2.143v-2.286h1.174v2.286h2.144v1.159h-2.144v2.302h-1.174v-2.302h-2.143z" style="-inkscape-font-specification:'Ubuntu Condensed, Bold'" id="path844" font-weight="700" font-size="15.875" font-family="Ubuntu Condensed"/></g></g></g><circle style="animation:4s throb infinite;animation-delay:3s" cx="-194.792" cy="12.132" r="34.063" fill="none" fill-opacity="0" stroke="#d8d8d8"/><circle style="animation:4s throb infinite;animation-delay:3s" cx="-302.9" cy="1.617" r="24.194" fill="none" fill-opacity="0" stroke="#d8d8d8"/><path d="M-377.694 89.873v13.759h13.758V89.873zm-17.198 13.759h13.758V89.873h-13.758zm0-30.957v13.759h13.758V72.675zm23.493-2.253l-9.735 9.717 9.735 9.734 9.734-9.734z" id="grid" fill="#890087" fill-opacity=".698" stroke-width=".265"/><circle style="animation:4s throb infinite;animation-delay:3s" cx="-379.414" cy="88.154" r="32.322" fill="none" fill-opacity="0" stroke="#d8d8d8"/><path d="M-325.591-21.965h47.55v47.55h-47.55z" id="path1417" fill="none" stroke-width=".265"/><path d="M-295.873-4.134h-11.887V7.754h11.887zm-3.962 7.925h-3.963V-.17h3.963zm15.85-3.962v-3.963h-3.963v-3.962a3.974 3.974 0 0 0-3.962-3.963h-3.963v-3.962h-3.962v3.962h-3.963v-3.962h-3.962v3.962h-3.962a3.974 3.974 0 0 0-3.963 3.963v3.962h-3.962V-.17h3.962V3.79h-3.962v3.963h3.962v3.962a3.974 3.974 0 0 0 3.963 3.963h3.962v3.962h3.962v-3.962h3.963v3.962h3.962v-3.962h3.963a3.974 3.974 0 0 0 3.962-3.963V7.754h3.963V3.79h-3.963V-.17zm-7.925 11.887h-19.812V-8.096h19.812z" id="cpu" fill-opacity=".698" stroke-width=".265"/><path d="M-176.812 6.738V3.143h-3.596V-.453a3.606 3.606 0 0 0-3.596-3.596h-25.171a3.606 3.606 0 0 0-3.596 3.596v25.17a3.606 3.606 0 0 0 3.596 3.597h25.17a3.606 3.606 0 0 0 3.597-3.596v-3.596h3.596v-3.596h-3.596V13.93h3.596v-3.596h-3.596V6.738zm-7.192 17.98h-25.171V-.453h25.17zM-205.58 13.93h8.99v7.192h-8.99zm10.787-10.787h7.192v5.393h-7.192zm-10.787 0h8.99v8.99h-8.99zm10.787 7.191h7.192v10.788h-7.192z" id="board" fill="#1d2dff" fill-opacity=".698" stroke-width=".265"/><circle style="animation:4s throb infinite;animation-delay:1s" cx="-261.938" cy="114.06" r="35.61" fill="none" fill-opacity="0" stroke="#d8d8d8"/><path style="animation:4s throb2 infinite;animation-delay:2.5s" d="M-308.05 105.744L-347.55 95.16M-279.513 70.97l-12.733-47.518M-234.156 76.829l20.827-36.074" fill="none" fill-rule="evenodd" stroke="#d8d8d8" stroke-width=".5"/><path style="animation:4s throb2 infinite;animation-delay:3.5s" d="M-366.07 58.686l43.373-43.373M-279.324-4.814l49.952 13.385M-349.817 75.695l124.165-48.57" fill="none" fill-rule="evenodd" stroke="#d8d8d8" stroke-width=".5"/></g></svg>