<svg xmlns="http://www.w3.org/2000/svg" width="703.53" height="703.53"><defs><filter id="a" color-interpolation-filters="sRGB"><feFlood flood-opacity=".627" flood-color="#333" result="flood"/><feComposite in="flood" in2="SourceGraphic" operator="in" result="composite1"/><feGaussianBlur in="composite1" stdDeviation="20" result="blur"/><feOffset result="offset"/><feComposite in="SourceGraphic" in2="offset" result="composite2"/></filter></defs><g transform="translate(-16.86 -172.44)" filter="url(#a)"><path d="M661.762 524.206c0 161.9-131.246 293.137-293.138 293.137-161.9 0-293.137-131.245-293.137-293.137 0-161.9 131.245-293.138 293.137-293.138 161.9 0 293.138 131.246 293.138 293.138z" color="#000" fill="#c60606" enable-background="accumulate"/><path d="M261.762 371.63c0 25.165-20.4 45.563-45.563 45.563-25.165 0-45.563-20.4-45.563-45.563 0-25.165 20.4-45.563 45.563-45.563 25.165 0 45.563 20.4 45.563 45.563z" color="#000" fill="none" stroke="#fff" stroke-width="9.87136634" enable-background="accumulate"/><path d="M219.15 353.44v15.155h15.097v6.825H219.15v15.155h-6.883V375.42H197.17v-6.825h15.097V353.44h6.883" font-weight="400" font-size="49.358" font-family="FontAwesome" letter-spacing="0" word-spacing="0" fill="#fff"/><path d="M362.66 371.875c0 25.165-20.4 45.563-45.563 45.563-25.164 0-45.563-20.4-45.563-45.563 0-25.165 20.4-45.563 45.563-45.563 25.165 0 45.563 20.4 45.563 45.563z" color="#000" fill="none" stroke="#fff" stroke-width="9.87136634" enable-background="accumulate"/><path d="M320.05 353.68v15.155h15.097v6.825H320.05v15.155h-6.883V375.66H298.07v-6.825h15.097V353.68h6.883" font-weight="400" font-size="49.358" font-family="FontAwesome" letter-spacing="0" word-spacing="0" fill="#fff"/><path d="M463.637 371.806c0 25.165-20.4 45.563-45.563 45.563-25.165 0-45.564-20.4-45.564-45.563 0-25.165 20.4-45.563 45.564-45.563s45.563 20.4 45.563 45.563z" color="#000" fill="none" stroke="#fff" stroke-width="9.87136634" enable-background="accumulate"/><path d="M421.02 353.61v15.155h15.097v6.825H421.02v15.155h-6.883V375.59H399.04v-6.825h15.097V353.61h6.883" font-weight="400" font-size="49.358" font-family="FontAwesome" letter-spacing="0" word-spacing="0" fill="#fff"/><path d="M564.535 372.05c0 25.165-20.4 45.564-45.563 45.564-25.165 0-45.563-20.4-45.563-45.563 0-25.165 20.4-45.563 45.563-45.563 25.164 0 45.563 20.4 45.563 45.563z" color="#000" fill="none" stroke="#fff" stroke-width="9.87136634" enable-background="accumulate"/><path d="M521.92 353.86v15.155h15.097v6.825H521.92v15.155h-6.883V375.84H499.94v-6.825h15.097V353.86h6.883" font-weight="400" font-size="49.358" font-family="FontAwesome" letter-spacing="0" word-spacing="0" fill="#fff"/><path d="M262.853 472.886c0 25.165-20.4 45.563-45.563 45.563-25.165 0-45.563-20.4-45.563-45.563 0-25.164 20.4-45.563 45.563-45.563 25.164 0 45.563 20.4 45.563 45.563z" color="#000" fill="none" stroke="#fff" stroke-width="9.87136634" enable-background="accumulate"/><path d="M206.66 468.27h21.189v9.819H206.66v-9.819" font-weight="400" font-size="49.358" font-family="FontAwesome" letter-spacing="0" word-spacing="0" fill="#fff"/><path d="M362.92 472.935c0 25.164-20.4 45.563-45.563 45.563-25.165 0-45.563-20.4-45.563-45.563 0-25.165 20.4-45.563 45.563-45.563 25.164 0 45.563 20.4 45.563 45.563z" color="#000" fill="none" stroke="#fff" stroke-width="9.87136634" enable-background="accumulate"/><path d="M306.73 468.32h21.189v9.819H306.73v-9.819" font-weight="400" font-size="49.358" font-family="FontAwesome" letter-spacing="0" word-spacing="0" fill="#fff"/><path d="M463.741 473.039c0 25.165-20.4 45.563-45.563 45.563-25.164 0-45.563-20.4-45.563-45.563 0-25.165 20.4-45.563 45.563-45.563 25.165 0 45.563 20.4 45.563 45.563z" color="#000" fill="none" stroke="#fff" stroke-width="9.87136634" enable-background="accumulate"/><path d="M407.55 468.43h21.189v9.819H407.55v-9.819" font-weight="400" font-size="49.358" font-family="FontAwesome" letter-spacing="0" word-spacing="0" fill="#fff"/><path d="M563.809 473.087c0 25.165-20.4 45.563-45.563 45.563-25.165 0-45.564-20.4-45.564-45.563 0-25.164 20.4-45.563 45.564-45.563s45.563 20.4 45.563 45.563z" color="#000" fill="none" stroke="#fff" stroke-width="9.87136634" enable-background="accumulate"/><path d="M507.62 468.47h21.189v9.819H507.62v-9.819" font-weight="400" font-size="49.358" font-family="FontAwesome" letter-spacing="0" word-spacing="0" fill="#fff"/><path d="M262.176 573.714c0 25.164-20.4 45.563-45.563 45.563-25.165 0-45.563-20.4-45.563-45.563 0-25.165 20.4-45.564 45.563-45.564 25.165 0 45.563 20.4 45.563 45.564z" color="#000" fill="none" stroke="#fff" stroke-width="9.87136634" enable-background="accumulate"/><path d="M219.56 555.52v15.155h15.097v6.825H219.56v15.155h-6.883V577.5H197.58v-6.825h15.097V555.52h6.883" font-weight="400" font-size="49.358" font-family="FontAwesome" letter-spacing="0" word-spacing="0" fill="#fff"/><path d="M363.074 573.958c0 25.165-20.4 45.563-45.563 45.563-25.164 0-45.563-20.4-45.563-45.563 0-25.164 20.4-45.563 45.563-45.563 25.165 0 45.563 20.4 45.563 45.563z" color="#000" fill="none" stroke="#fff" stroke-width="9.87136634" enable-background="accumulate"/><path d="M320.46 555.76v15.155h15.097v6.825H320.46v15.155h-6.883V577.74H298.48v-6.825h15.097V555.76h6.883" font-weight="400" font-size="49.358" font-family="FontAwesome" letter-spacing="0" word-spacing="0" fill="#fff"/><path d="M464.05 573.89c0 25.164-20.4 45.563-45.563 45.563-25.164 0-45.563-20.4-45.563-45.564s20.4-45.563 45.563-45.563c25.165 0 45.563 20.4 45.563 45.563z" color="#000" fill="none" stroke="#fff" stroke-width="9.87136634" enable-background="accumulate"/><path d="M421.44 555.7v15.155h15.097v6.825H421.44v15.155h-6.883V577.68H399.46v-6.825h15.097V555.7h6.883" font-weight="400" font-size="49.358" font-family="FontAwesome" letter-spacing="0" word-spacing="0" fill="#fff"/><path d="M564.949 574.134c0 25.165-20.4 45.563-45.563 45.563-25.165 0-45.563-20.4-45.563-45.563 0-25.164 20.4-45.563 45.563-45.563 25.164 0 45.563 20.4 45.563 45.563z" color="#000" fill="none" stroke="#fff" stroke-width="9.87136634" enable-background="accumulate"/><path d="M522.34 555.94v15.155h15.097v6.825H522.34v15.155h-6.883V577.92H500.36v-6.825h15.097V555.94h6.883" font-weight="400" font-size="49.358" font-family="FontAwesome" letter-spacing="0" word-spacing="0" fill="#fff"/><path d="M263.267 674.97c0 25.165-20.4 45.563-45.563 45.563-25.165 0-45.564-20.4-45.564-45.563 0-25.165 20.4-45.563 45.564-45.563s45.563 20.4 45.563 45.563z" color="#000" fill="none" stroke="#fff" stroke-width="9.87136634" enable-background="accumulate"/><path d="M207.08 670.36h21.189v9.819H207.08v-9.819" font-weight="400" font-size="49.358" font-family="FontAwesome" letter-spacing="0" word-spacing="0" fill="#fff"/><path d="M363.334 675.018c0 25.165-20.4 45.563-45.563 45.563-25.165 0-45.563-20.4-45.563-45.563 0-25.164 20.4-45.563 45.563-45.563 25.164 0 45.563 20.4 45.563 45.563z" color="#000" fill="none" stroke="#fff" stroke-width="9.87136634" enable-background="accumulate"/><path d="M307.14 670.41h21.189v9.819H307.14v-9.819" font-weight="400" font-size="49.358" font-family="FontAwesome" letter-spacing="0" word-spacing="0" fill="#fff"/><path d="M464.155 675.122c0 25.165-20.4 45.563-45.563 45.563-25.164 0-45.563-20.4-45.563-45.563 0-25.164 20.4-45.563 45.563-45.563 25.165 0 45.563 20.4 45.563 45.563z" color="#000" fill="none" stroke="#fff" stroke-width="9.87136634" enable-background="accumulate"/><path d="M407.96 670.51h21.189v9.819H407.96v-9.819" font-weight="400" font-size="49.358" font-family="FontAwesome" letter-spacing="0" word-spacing="0" fill="#fff"/><path d="M564.222 675.17c0 25.165-20.4 45.564-45.563 45.564-25.164 0-45.563-20.4-45.563-45.563 0-25.165 20.4-45.563 45.563-45.563 25.165 0 45.563 20.4 45.563 45.563z" color="#000" fill="none" stroke="#fff" stroke-width="9.87136634" enable-background="accumulate"/><path d="M508.03 670.56h21.189v9.819H508.03v-9.819" font-weight="400" font-size="49.358" font-family="FontAwesome" letter-spacing="0" word-spacing="0" fill="#fff"/></g></svg>