<svg xmlns="http://www.w3.org/2000/svg" width="537.087" height="616.029"><defs><filter id="c" height="1.5" width="1.5" x="-.3" y="-.3" color-interpolation-filters="sRGB"><feFlood flood-opacity=".796" flood-color="#333" result="flood"/><feComposite in="flood" in2="SourceGraphic" operator="in" result="composite1"/><feGaussianBlur in="composite1" stdDeviation="10" result="blur"/><feOffset result="offset"/><feComposite in="SourceGraphic" in2="offset" result="composite2"/></filter><filter id="d" width="1.54" height="1.55" y="-.3" x="-.3" color-interpolation-filters="sRGB"><feFlood flood-opacity=".796" flood-color="#333" result="flood"/><feComposite in="flood" in2="SourceGraphic" operator="in" result="composite1"/><feGaussianBlur in="composite1" stdDeviation="10" result="blur"/><feOffset result="offset"/><feComposite in="SourceGraphic" in2="offset" result="composite2"/></filter><filter id="e" width="1.6" height="1.5" x="-.3" y="-.3" color-interpolation-filters="sRGB"><feFlood flood-opacity=".796" flood-color="#333" result="flood"/><feComposite in="flood" in2="SourceGraphic" operator="in" result="composite1"/><feGaussianBlur in="composite1" stdDeviation="10" result="blur"/><feOffset result="offset"/><feComposite in="SourceGraphic" in2="offset" result="composite2"/></filter><filter id="a" width="1.31" height="1.3" color-interpolation-filters="sRGB"><feFlood flood-opacity=".796" flood-color="#333" result="flood"/><feComposite in="flood" in2="SourceGraphic" operator="in" result="composite1"/><feGaussianBlur in="composite1" stdDeviation="10" result="blur"/><feOffset result="offset"/><feComposite in="SourceGraphic" in2="offset" result="composite2"/></filter><filter id="b" width="1.57" height="1.55" x="-.3" y="-.3" color-interpolation-filters="sRGB"><feFlood flood-opacity=".796" flood-color="#333" result="flood"/><feComposite in="flood" in2="SourceGraphic" operator="in" result="composite1"/><feGaussianBlur in="composite1" stdDeviation="10" result="blur"/><feOffset result="offset"/><feComposite in="SourceGraphic" in2="offset" result="composite2"/></filter></defs><path d="M389.754 333.403c0 80.476-65.238 145.71-145.71 145.71-80.476 0-145.71-65.238-145.71-145.71 0-80.476 65.24-145.71 145.71-145.71 80.476 0 145.71 65.24 145.71 145.71z" color="#000" fill="#c60606" filter="url(#a)" enable-background="accumulate"/><g transform="matrix(1.0975 0 0 1.0975 -71.992 -167.063)"><rect x="242.03" y="415.11" width="129.66" height="81.201" ry="18.991" color="#000" fill="#fff" enable-background="accumulate"/><path d="M180.04 442.45v7.612h-11.418v1.953l11.418-.1v7.673l-11.418-.021v1.924l11.418-.012v7.612h11.081c4.882-9.055 4.074-17.907 0-26.642z" fill="#fff" stroke="#fff" stroke-width="1.903" stroke-linecap="round" stroke-linejoin="round"/><path d="M193.1 456.5c2.99-1.771 6.944-3.402 12.285 0 6.243 4.898 12.542 5.973 18.945 0 4.735-4.282 8.737-3.884 12.191 0 3.072 2.66 5.907.357 8.835 0" fill="none" stroke="#fff" stroke-width="5"/><text x="246.615" y="471.425" font-size="51.861" font-weight="400" style="line-height:0%" font-family="Ubuntu" letter-spacing="0" word-spacing="0" fill="#c60606"><tspan x="246.615" y="471.425">~</tspan></text><path d="M332.31 459.86h13.228m2.904 0h13.228m0-7.743h-29.2" stroke="#c60606" stroke-width="2.258"/><path stroke-miterlimit="1.7" d="M370.23 456.32c20.31.599 36.674-4.35 35.693-23.74" fill="none" stroke="#fff" stroke-width="5.186"/><path d="M407.88 433.98l-3.756.169-.254-5.65 1.633-.073.091 2.026.49-.022-.09-2.026 1.632-.074z" fill="#ffeaea"/></g><path d="M471.382 199.477c0 27.318-22.146 49.464-49.464 49.464-27.318 0-49.464-22.146-49.464-49.464 0-27.318 22.146-49.464 49.464-49.464 27.318 0 49.464 22.146 49.464 49.464z" color="#000" fill="#c60606" filter="url(#b)" enable-background="accumulate"/><path d="M413.974 196.896v-6.283c0-4.615 3.763-8.378 8.378-8.378 4.614 0 8.377 3.763 8.377 8.378v6.283h-16.755m27.227 3.141a3.142 3.142 0 0 0-3.142-3.141h-1.047v-6.283c0-8.05-6.61-14.66-14.66-14.66s-14.66 6.61-14.66 14.66v6.283h-1.047a3.142 3.142 0 0 0-3.141 3.141v18.85a3.142 3.142 0 0 0 3.141 3.14h31.415a3.142 3.142 0 0 0 3.142-3.14v-18.85" font-size="58.642" font-weight="400" font-family="FontAwesome" letter-spacing="0" word-spacing="0" fill="#fff"/><path d="M197.951 117c0 38.66-31.34 70-70 70s-70-31.34-70-70 31.34-70 70-70 70 31.34 70 70z" color="#000" fill="#c60606" filter="url(#c)" enable-background="accumulate"/><path d="M162.784 124.736c0-.805-.662-1.514-1.514-1.514h-9.084c-.71 0-1.183.425-1.42 1.088-.803 1.892-1.371 3.69-2.507 5.535a24.151 24.151 0 0 1-20.628 11.544c-6.103 0-12.017-2.365-16.465-6.529l6.482-6.482a3.01 3.01 0 0 0 .899-2.129 3.05 3.05 0 0 0-3.028-3.028H94.323a3.05 3.05 0 0 0-3.028 3.028v21.196a3.05 3.05 0 0 0 3.028 3.028 3.01 3.01 0 0 0 2.129-.899l6.103-6.103c6.719 6.387 15.66 10.03 24.886 10.03 17.458 0 31.273-11.686 35.295-28.435.048-.094.048-.236.048-.331m1.182-37.85a3.05 3.05 0 0 0-3.028-3.028 3.01 3.01 0 0 0-2.129.899l-6.15 6.103c-6.719-6.34-15.755-10.03-25.028-10.03-17.458 0-31.415 11.64-35.484 28.435v.331c0 .805.662 1.514 1.514 1.514h9.415c.71 0 1.183-.425 1.42-1.088.804-1.892 1.371-3.69 2.507-5.535a24.151 24.151 0 0 1 20.628-11.544 24.337 24.337 0 0 1 16.512 6.482l-6.53 6.529a3.01 3.01 0 0 0-.898 2.129 3.05 3.05 0 0 0 3.028 3.028h21.196a3.05 3.05 0 0 0 3.028-3.028V86.886" font-size="84.783" font-weight="400" font-family="FontAwesome" letter-spacing="0" word-spacing="0" fill="#fff"/><path d="M504.449 524.66c0 31.8-25.78 57.58-57.58 57.58-31.8 0-57.578-25.78-57.578-57.58 0-31.8 25.779-57.578 57.579-57.578s57.579 25.779 57.579 57.579z" color="#000" fill="#c60606" filter="url(#d)" enable-background="accumulate"/><path d="M424.434 525.006a5.567 5.567 0 0 1-5.584 5.584 5.567 5.567 0 0 1-5.585-5.584 5.567 5.567 0 0 1 5.585-5.585 5.567 5.567 0 0 1 5.584 5.585m8.377-19.545a5.567 5.567 0 0 1-5.585 5.584 5.567 5.567 0 0 1-5.584-5.584 5.567 5.567 0 0 1 5.584-5.585 5.567 5.567 0 0 1 5.585 5.585m18.673 20.985c2.836 1.963 4.319 5.54 3.403 9.074-1.178 4.45-5.76 7.155-10.253 5.977-4.45-1.178-7.155-5.758-5.977-10.253.96-3.533 3.97-5.933 7.416-6.195l4.407-16.666c.392-1.483 1.92-2.4 3.403-2.007 1.483.393 2.356 1.92 2.007 3.403l-4.407 16.666m28.795-1.44a5.567 5.567 0 0 1-5.584 5.585 5.567 5.567 0 0 1-5.585-5.584 5.567 5.567 0 0 1 5.585-5.585 5.567 5.567 0 0 1 5.584 5.585m-27.92-27.91a5.567 5.567 0 0 1-5.584 5.584 5.567 5.567 0 0 1-5.585-5.584 5.567 5.567 0 0 1 5.585-5.585 5.567 5.567 0 0 1 5.584 5.585m19.545 8.376a5.567 5.567 0 0 1-5.584 5.585 5.567 5.567 0 0 1-5.585-5.585 5.567 5.567 0 0 1 5.585-5.584 5.567 5.567 0 0 1 5.584 5.584m13.961 19.545c0-21.552-17.539-39.09-39.09-39.09-21.553 0-39.092 17.538-39.092 39.09 0 7.504 2.138 14.79 6.152 21.072a2.822 2.822 0 0 0 2.356 1.265h61.167c.96 0 1.832-.48 2.356-1.265 4.013-6.326 6.151-13.568 6.151-21.072" font-size="78.182" font-weight="400" font-family="FontAwesome" letter-spacing="0" word-spacing="0" fill="#fff"/><path d="M123.61 516.528c0 25.194-20.424 45.62-45.62 45.62-25.194 0-45.618-20.425-45.618-45.62 0-25.194 20.424-45.62 45.619-45.62 25.194 0 45.619 20.425 45.619 45.62z" color="#000" fill="#c60606" filter="url(#e)" enable-background="accumulate"/><path d="M75.834 516.486c0 4.29-3.5 7.79-7.79 7.79-4.292 0-7.792-3.5-7.792-7.79 0-4.292 3.5-7.791 7.791-7.791s7.791 3.5 7.791 7.79m23.373 15.583a3.903 3.903 0 0 1-3.895 3.895 3.903 3.903 0 0 1-3.896-3.895c0-2.13 1.765-3.896 3.896-3.896 2.13 0 3.895 1.765 3.895 3.896m0-31.164a3.903 3.903 0 0 1-3.895 3.895 3.903 3.903 0 0 1-3.896-3.895c0-2.13 1.765-3.896 3.896-3.896 2.13 0 3.895 1.765 3.895 3.896M87.52 513.717a.943.943 0 0 0-.73-.913l-4.626-.7c-.274-.853-.64-1.674-1.035-2.496.852-1.187 1.765-2.282 2.648-3.47.121-.182.213-.365.213-.578 0-.852-3.591-4.139-4.383-4.869a.982.982 0 0 0-.639-.243.93.93 0 0 0-.609.213l-3.59 2.708c-.731-.365-1.492-.7-2.283-.943l-.7-4.657c-.061-.426-.487-.76-.913-.76h-5.66c-.427 0-.792.304-.914.73-.396 1.491-.548 3.165-.7 4.687-.822.274-1.582.578-2.343.974l-3.5-2.74a1.148 1.148 0 0 0-.64-.213c-.882 0-4.29 3.683-4.9 4.505a.93.93 0 0 0-.212.608c0 .213.091.426.213.609.974 1.157 1.887 2.283 2.739 3.5-.396.76-.73 1.522-.974 2.313l-4.717.73c-.396.061-.7.518-.7.913v5.63c0 .427.304.822.73.883l4.626.73c.274.853.64 1.674 1.065 2.496-.882 1.187-1.795 2.313-2.678 3.47-.122.182-.213.365-.213.578 0 .882 3.591 4.139 4.383 4.87a.982.982 0 0 0 .639.243c.213 0 .456-.061.608-.213l3.591-2.709c.73.365 1.492.7 2.283.943l.7 4.657c.06.426.487.76.913.76h5.66c.427 0 .792-.304.914-.73.395-1.49.547-3.165.7-4.717a13.01 13.01 0 0 0 2.343-.943l3.5 2.739c.183.121.396.213.64.213.882 0 4.29-3.713 4.899-4.535.152-.152.213-.365.213-.578 0-.244-.091-.426-.213-.609-.974-1.156-1.887-2.282-2.74-3.5.397-.76.731-1.521.975-2.313l4.717-.73c.396-.061.7-.517.7-.913v-5.63m19.478 16.22c0-.456-3.926-.882-4.535-.943a8.217 8.217 0 0 0-.913-1.582c.274-.609 1.552-3.652 1.552-4.2 0-.061-.03-.152-.121-.213-.366-.213-3.622-2.13-3.774-2.13l-.183.06c-1.035 1.035-1.948 2.222-2.8 3.409-.304-.03-.608-.061-.913-.061-.304 0-.608.03-.913.06-.304-.456-2.587-3.468-2.982-3.468-.152 0-3.409 1.947-3.774 2.13a.264.264 0 0 0-.122.213c0 .517 1.279 3.591 1.552 4.2a8.216 8.216 0 0 0-.913 1.582c-.608.061-4.534.487-4.534.944v4.26c0 .457 3.926.883 4.534.944.244.578.548 1.096.913 1.583-.273.608-1.552 3.682-1.552 4.2 0 .06.03.151.122.212.365.213 3.622 2.161 3.774 2.161.396 0 2.678-3.043 2.982-3.5.305.03.609.061.913.061.305 0 .61-.03.913-.06.305.456 2.587 3.5 2.983 3.5.152 0 3.408-1.949 3.774-2.162.091-.06.121-.121.121-.213 0-.547-1.278-3.59-1.552-4.2.366-.486.67-1.004.913-1.582.609-.061 4.535-.487 4.535-.944v-4.26m0-31.164c0-.457-3.926-.883-4.535-.944a8.217 8.217 0 0 0-.913-1.582c.274-.609 1.552-3.652 1.552-4.2 0-.061-.03-.152-.121-.213-.366-.213-3.622-2.13-3.774-2.13l-.183.06c-1.035 1.035-1.948 2.222-2.8 3.409-.304-.03-.608-.06-.913-.06-.304 0-.608.03-.913.06-.304-.456-2.587-3.47-2.982-3.47-.152 0-3.409 1.948-3.774 2.131a.264.264 0 0 0-.122.213c0 .517 1.279 3.591 1.552 4.2a8.216 8.216 0 0 0-.913 1.582c-.608.061-4.534.487-4.534.944v4.26c0 .457 3.926.883 4.534.944.244.578.548 1.096.913 1.583-.273.608-1.552 3.682-1.552 4.2 0 .06.03.152.122.212.365.213 3.622 2.161 3.774 2.161.396 0 2.678-3.043 2.982-3.5.305.03.609.061.913.061.305 0 .61-.03.913-.06.305.456 2.587 3.5 2.983 3.5.152 0 3.408-1.949 3.774-2.162.091-.06.121-.121.121-.213 0-.547-1.278-3.59-1.552-4.2.366-.486.67-1.004.913-1.582.609-.06 4.535-.487 4.535-.943v-4.261" font-size="54.537" font-weight="400" font-family="FontAwesome" letter-spacing="0" word-spacing="0" fill="#fff"/></svg>