<svg xmlns="http://www.w3.org/2000/svg" width="761.532" height="916.515"><defs><marker orient="auto" id="a" overflow="visible"><path d="M8.719 4.034L-2.207.016 8.719-4.002c-1.746 2.372-1.736 5.618 0 8.036z" transform="matrix(-1.1 0 0 -1.1 -1.1 0)" fill-rule="evenodd" stroke-width=".625" stroke-linejoin="round"/></marker><marker orient="auto" id="b" overflow="visible"><path d="M8.719 4.034L-2.207.016 8.719-4.002c-1.746 2.372-1.736 5.618 0 8.036z" transform="translate(1.1) scale(1.1)" fill-rule="evenodd" stroke-width=".625" stroke-linejoin="round"/></marker></defs><path fill="#acacac" stroke="#000" stroke-width=".339" d="M257.079 294.483h133.717v285H257.079z"/><path d="M308.261 708.763c-35.368 3.279-69.865 4.583-115 30-11.458 33.403-18.638 68.232-20 105 1.439 6.685 2.667 13.556 10 15 5.902 1.33 8.062-1.705 10-5-1.14-9.386-6.468-10.397-10-15-1.94-15.801.932-32.533 5-47 22.72-7.491 46.348-8.36 70-7 5.215-1.873.735-12.286-10-6-19.85.737-40.388.235-58 5 .531-13.067 7.084-24.625 13-35 29.117-28.738 70.088-32.015 105-35z" fill="#acacac" stroke="#000" stroke-width=".3"/><path d="M308.261 668.763z" fill="none" stroke="#000"/><path d="M352.261 708.763c35.368 3.279 69.865 4.583 115 30 11.458 33.403 18.639 68.232 20 105-1.438 6.685-2.667 13.556-10 15-5.902 1.33-8.062-1.705-10-5 1.14-9.386 6.468-10.397 10-15 1.94-15.801-.932-32.533-5-47-22.72-7.491-46.348-8.36-70-7-5.215-1.873-.735-12.286 10-6 19.85.737 40.388.235 58 5-.53-13.067-7.083-24.625-13-35-29.117-28.738-70.088-32.015-105-35z" fill="#acacac" stroke="#000" stroke-width=".3"/><path d="M312.352 668.763v30h-4.545v15l-4.546.38c-2.61 4.783-2.267 9.668 0 14.62h22.727v-10h9.091v10h22.728c3.835-5.393 2.141-9.78-.546-14.505l-4-.495v-15h-4.545v-30c-11.942-4.4-24.086-3.84-36.364 0z" fill="#bde5ff" stroke="#000" stroke-width=".286"/><path d="M307.828 150.47c-35.368-3.28-69.865-4.583-115-30-11.458-33.404-18.639-68.233-20-105 1.438-6.685 2.667-13.556 10-15 5.902-1.331 8.062 1.705 10 5-1.14 9.386-6.468 10.396-10 15-1.94 15.8.932 32.533 5 47 22.72 7.49 46.348 8.36 70 7 5.215 1.873.735 12.285-10 6-19.85-.737-40.388-.236-58-5 .53 13.067 7.083 24.624 13 35 29.117 28.737 70.088 32.014 105 35z" fill="#acacac" stroke="#000" stroke-width=".3"/><path d="M307.828 190.47z" fill="none" stroke="#000"/><path d="M351.828 150.47c35.368-3.28 69.865-4.583 115-30 11.458-33.404 18.638-68.233 20-105-1.439-6.685-2.667-13.556-10-15-5.903-1.331-8.062 1.705-10 5 1.14 9.386 6.468 10.396 10 15 1.94 15.8-.932 32.533-5 47-22.72 7.49-46.348 8.36-70 7-5.215 1.873-.735 12.285 10 6 19.85-.737 40.388-.236 58-5-.531 13.067-7.084 24.624-13 35-29.117 28.737-70.089 32.014-105 35z" fill="#acacac" stroke="#000" stroke-width=".3"/><path d="M311.919 190.47v-30h-4.546v-15l-4.545-.38c-2.61-4.783-2.268-9.669 0-14.62h22.727v10h9.09v-10h22.728c3.836 5.392 2.142 9.78-.545 14.504l-4 .495v15h-4.546v30c-11.941 4.401-24.085 3.84-36.363 0z" fill="#bde5ff" stroke="#000" stroke-width=".286"/><path d="M330.185 140.417v578.239" fill="none" stroke="#000"/><path d="M226.947 255.656v-37.313" fill="none" stroke="#000" stroke-width=".786"/><text style="line-height:125%;-inkscape-font-specification:Ubuntu" x="281.04" y="278.874" font-weight="400" font-size="13" font-family="Ubuntu" letter-spacing="0" word-spacing="0" transform="translate(-13.52 -31.85)"><tspan x="281.04" y="278.874" font-size="48">a</tspan></text><path d="M310.151 266.648h24.67" fill="none" stroke="#000" stroke-width=".798" marker-end="url(#a)" transform="translate(-13.52 -31.85)"/><path d="M250.416 266.826h25.602" fill="none" stroke="#000" stroke-width=".813" marker-start="url(#b)" transform="translate(-13.52 -31.85)"/><text style="line-height:125%;-inkscape-font-specification:Ubuntu" x="11.071" y="486.291" font-weight="400" font-size="13" font-family="Ubuntu" letter-spacing="0" word-spacing="0" transform="translate(-13.52 -31.85)"><tspan x="11.071" y="486.291" font-size="48">d</tspan></text><path d="M24.643 441.725V321.647" fill="none" stroke="#000" stroke-width="1.219" marker-end="url(#a)" transform="translate(-13.52 -31.85)"/><path d="M24.663 618.36V494.924" fill="none" stroke="#000" stroke-width="1.236" marker-start="url(#b)" transform="translate(-13.52 -31.85)"/><path d="M341.123 140.513h357.515M359.732 718.477h338.906" fill="none" stroke="#000"/><text style="line-height:125%;-inkscape-font-specification:Ubuntu" x="696.015" y="483.646" font-weight="400" font-size="13" font-family="Ubuntu" letter-spacing="0" word-spacing="0" transform="translate(-13.52 -31.85)"><tspan x="696.015" y="483.646" font-size="48">D</tspan></text><path d="M712.158 203.329v225.264" fill="none" stroke="#000" marker-start="url(#b)" transform="translate(-13.52 -31.85)"/><path d="M712.163 499.245V724.51" fill="none" stroke="#000" marker-end="url(#a)" transform="translate(-13.52 -31.85)"/><path fill="#6c6363" stroke="#000" stroke-width=".3" d="M91.342 419.768h85v30h-85z"/><path d="M176.342 419.482v-35l5-5v115l-5-5zM181.342 379.483h10v115h-10z" fill="#acacac" stroke="#000" stroke-width=".3"/><path fill="#acacac" stroke="#000" stroke-width=".379" d="M191.332 354.483h8v165h-8z"/><path d="M199.342 336.149l23-36.667v275l-23-36.667z" fill="#acacac" stroke="#000" stroke-width=".356"/><path d="M227.339 264.62a5 5 0 0 0-5 5c0 .032-.001.062 0 .094v335a5 5 0 0 0 10 0v-335-.094a5 5 0 0 0-5-5z" fill="#bde5ff" stroke="#000" stroke-width=".347"/><path fill="#acacac" stroke="#000" stroke-width=".334" d="M232.26 284.483h24.817v305H232.26z"/><path fill="#6c6363" stroke="#000" stroke-width=".317" d="M566.183 419.579h-95.058v30h95.058z"/><path d="M471.165 419.875v-35l-5-5v115l5-5zM466.165 379.875h-10v115h10z" fill="#acacac" stroke="#000" stroke-width=".3"/><path fill="#acacac" stroke="#000" stroke-width=".379" d="M456.175 354.876h-8v165h8z"/><path d="M448.165 336.542l-23-36.667v275l23-36.667z" fill="#acacac" stroke="#000" stroke-width=".356"/><path d="M419.651 265.026c-2.521.256-4.5 2.411-4.5 5V605.12a5 5 0 0 0 10 0c0-.173.017-.363 0-.531V270.12v-.094a5 5 0 0 0-5-5c-.173 0-.332-.017-.5 0z" fill="#bde5ff" stroke="#000" stroke-width=".347"/><path fill="#acacac" stroke="#000" stroke-width=".334" d="M415.246 284.876H390.43v305h24.816z"/><path d="M226.897 601.358H11.123M226.897 272.36H11.123" fill="none" stroke="#000" stroke-width="1.056"/></svg>