<svg xmlns="http://www.w3.org/2000/svg" width="761.532" height="916.515"><defs><marker orient="auto" id="a" overflow="visible"><path d="M8.719 4.034L-2.207.016 8.719-4.002c-1.746 2.372-1.736 5.618 0 8.036z" transform="matrix(-1.1 0 0 -1.1 -1.1 0)" fill-rule="evenodd" stroke-width=".625" stroke-linejoin="round"/></marker><marker orient="auto" id="b" overflow="visible"><path d="M8.719 4.034L-2.207.016 8.719-4.002c-1.746 2.372-1.736 5.618 0 8.036z" transform="translate(1.1) scale(1.1)" fill-rule="evenodd" stroke-width=".625" stroke-linejoin="round"/></marker></defs><path d="M308.261 708.763c-35.368 3.279-69.865 4.583-115 30-11.458 33.403-18.638 68.232-20 105 1.439 6.685 2.667 13.556 10 15 5.902 1.33 8.062-1.705 10-5-1.14-9.386-6.468-10.397-10-15-1.94-15.801.932-32.533 5-47 22.72-7.491 46.348-8.36 70-7 5.215-1.873.735-12.286-10-6-19.85.737-40.388.235-58 5 .531-13.067 7.084-24.625 13-35 29.117-28.738 70.088-32.015 105-35z" fill="#acacac" stroke="#000" stroke-width=".3"/><path d="M308.261 668.763z" fill="none" stroke="#000"/><path d="M352.261 708.763c35.368 3.279 69.865 4.583 115 30 11.458 33.403 18.639 68.232 20 105-1.438 6.685-2.667 13.556-10 15-5.902 1.33-8.062-1.705-10-5 1.14-9.386 6.468-10.397 10-15 1.94-15.801-.932-32.533-5-47-22.72-7.491-46.348-8.36-70-7-5.215-1.873-.735-12.286 10-6 19.85.737 40.388.235 58 5-.53-13.067-7.083-24.625-13-35-29.117-28.738-70.088-32.015-105-35z" fill="#acacac" stroke="#000" stroke-width=".3"/><path d="M312.352 668.763v30h-4.545v15l-4.546.38c-2.61 4.783-2.267 9.668 0 14.62h22.727v-10h9.091v10h22.728c3.835-5.393 2.141-9.78-.546-14.505l-4-.495v-15h-4.545v-30c-11.942-4.4-24.086-3.84-36.364 0z" fill="#bde5ff" stroke="#000" stroke-width=".286"/><path fill="#acacac" stroke="#000" stroke-width=".296" d="M54.9 420.47h10.513v30H54.9z"/><path fill="#acacac" stroke="#000" stroke-width=".311" d="M65.078 400.47h15.179v70h-15.18z"/><path d="M79.9 400.47l10 10v50l-10 10z" fill="#acacac" stroke="#000" stroke-width=".3"/><path fill="#acacac" stroke="#000" stroke-width=".274" d="M89.9 410.47h50v50h-50z"/><path d="M139.9 380.47v110l5 5v-120z" fill="#acacac" stroke="#000" stroke-width=".3"/><path d="M199.828 350.47v170c-18.223-6.358-36.416-12.192-55-25v-120c18.333-13.16 36.666-18.742 55-25z" fill="#acacac" stroke="#000" stroke-width=".266"/><path d="M204.824 305.463a5 5 0 0 0-5 5v250h.094c.466 2.278 2.49 4 4.906 4a5.017 5.017 0 0 0 4.907-4h.093v-250a5 5 0 0 0-5-5z" fill="#bde5ff" stroke="#000" stroke-width=".3"/><path fill="#acacac" stroke="#000" stroke-width=".254" d="M223.828 400.47h70v70h-70z"/><path d="M209.828 360.47c-.123 20.407 5.124 33.4 15 40v70c-10.29 7.454-15.424 20.64-15 40z" fill="#acacac" stroke="#000" stroke-width=".26"/><path fill="#acacac" stroke="#000" stroke-width=".236" d="M303.828 390.47h74v90h-74z"/><path d="M293.828 400.47c2.782-4.495 6.087-7.887 10-10v90c-3.899-1.906-7.232-5.239-10-10z" fill="#acacac" stroke="#000" stroke-width=".212"/><path d="M397.824 305.463a5 5 0 0 0-5 5v250h.094c.466 2.278 2.49 4 4.906 4a5.017 5.017 0 0 0 4.907-4h.093v-250a5 5 0 0 0-5-5z" fill="#bde5ff" stroke="#000" stroke-width=".3"/><path d="M392.828 360.47c-2.918 11.897-6.779 22.934-15 30v90c6.807 7.26 11.883 17.144 15 30z" fill="#acacac" stroke="#000" stroke-width=".3"/><path fill="#acacac" stroke="#000" stroke-width=".332" d="M403.257 375.47h145.572v120H403.257z"/><path fill="#acacac" stroke="#000" stroke-width=".296" d="M618.062 420.48h-10.513v30h10.513z"/><path fill="#acacac" stroke="#000" stroke-width=".311" d="M607.884 400.48h-15.18v70h15.18z"/><path d="M593.062 400.48l-10 10v50l10 10z" fill="#acacac" stroke="#000" stroke-width=".3"/><path fill="#acacac" stroke="#000" stroke-width=".209" d="M582.828 410.48H553.82v50h29.008z"/><path d="M553.567 380.48v110l-5 5v-120zM307.828 150.47c-35.368-3.28-69.865-4.583-115-30-11.458-33.404-18.639-68.233-20-105 1.438-6.685 2.667-13.556 10-15 5.902-1.331 8.062 1.705 10 5-1.14 9.386-6.468 10.396-10 15-1.94 15.8.932 32.533 5 47 22.72 7.49 46.348 8.36 70 7 5.215 1.873.735 12.285-10 6-19.85-.737-40.388-.236-58-5 .53 13.067 7.083 24.624 13 35 29.117 28.737 70.088 32.014 105 35z" fill="#acacac" stroke="#000" stroke-width=".3"/><path d="M307.828 190.47z" fill="none" stroke="#000"/><path d="M351.828 150.47c35.368-3.28 69.865-4.583 115-30 11.458-33.404 18.638-68.233 20-105-1.439-6.685-2.667-13.556-10-15-5.903-1.331-8.062 1.705-10 5 1.14 9.386 6.468 10.396 10 15 1.94 15.8-.932 32.533-5 47-22.72 7.49-46.348 8.36-70 7-5.215 1.873-.735 12.285 10 6 19.85-.737 40.388-.236 58-5-.531 13.067-7.084 24.624-13 35-29.117 28.737-70.089 32.014-105 35z" fill="#acacac" stroke="#000" stroke-width=".3"/><path d="M311.919 190.47v-30h-4.546v-15l-4.545-.38c-2.61-4.783-2.268-9.669 0-14.62h22.727v10h9.09v-10h22.728c3.836 5.392 2.142 9.78-.545 14.504l-4 .495v15h-4.546v30c-11.941 4.401-24.085 3.84-36.363 0z" fill="#bde5ff" stroke="#000" stroke-width=".286"/><path d="M330.185 140.417v578.239M204.695 297.656v-60.358M204.695 556.6H11.123M204.695 313.37H11.123" fill="none" stroke="#000"/><text style="line-height:125%;-inkscape-font-specification:Ubuntu" x="269.04" y="308.874" font-weight="400" font-size="13" font-family="Ubuntu" letter-spacing="0" word-spacing="0" transform="translate(-13.52 -31.85)"><tspan x="269.04" y="308.874" font-size="48">a</tspan></text><path d="M296.071 296.648h38.75" fill="none" stroke="#000" marker-end="url(#a)" transform="translate(-13.52 -31.85)"/><path d="M227.268 296.826h38.75" fill="none" stroke="#000" marker-start="url(#b)" transform="translate(-13.52 -31.85)"/><text style="line-height:125%;-inkscape-font-specification:Ubuntu" x="11.071" y="486.291" font-weight="400" font-size="13" font-family="Ubuntu" letter-spacing="0" word-spacing="0" transform="translate(-13.52 -31.85)"><tspan x="11.071" y="486.291" font-size="48">d</tspan></text><path d="M24.643 441.725v-80.812" fill="none" stroke="#000" marker-end="url(#a)" transform="translate(-13.52 -31.85)"/><path d="M24.663 575.736v-80.812" fill="none" stroke="#000" marker-start="url(#b)" transform="translate(-13.52 -31.85)"/><path d="M341.123 140.513h357.515M359.732 718.477h338.906" fill="none" stroke="#000"/><text style="line-height:125%;-inkscape-font-specification:Ubuntu" x="696.015" y="483.646" font-weight="400" font-size="13" font-family="Ubuntu" letter-spacing="0" word-spacing="0" transform="translate(-13.52 -31.85)"><tspan x="696.015" y="483.646" font-size="48">D</tspan></text><path d="M712.158 203.329v225.264" fill="none" stroke="#000" marker-start="url(#b)" transform="translate(-13.52 -31.85)"/><path d="M712.163 499.245V724.51" fill="none" stroke="#000" marker-end="url(#a)" transform="translate(-13.52 -31.85)"/></svg>